<svg xmlns="http://www.w3.org/2000/svg" viewBox="0 0 100 100" preserveAspectRatio="xMidYMid" width="211" height="211" style="shape-rendering: auto; display: block; background: rgba(255, 255, 255, 0);" xmlns:xlink="http://www.w3.org/1999/xlink"><g><g transform="translate(50 50)">
<g>
<animateTransform repeatCount="indefinite" dur="0.25062656641604014s" keyTimes="0;1" values="0;36" type="rotate" attributeName="transform"></animateTransform><path fill="#120823" d="M25.690465157330255 -4 L36.69046515733025 -4 L36.69046515733025 4 L25.690465157330255 4 A26 26 0 0 1 23.13516391484753 11.864408566512566 L23.13516391484753 11.864408566512566 L32.034350852971954 18.33004634172977 L27.332068834632167 24.80218229672935 L18.432881896507745 18.336544521512145 A26 26 0 0 1 11.743016392193123 23.197016317032748 L11.743016392193123 23.197016317032748 L15.142203330317546 33.65863799627944 L7.533751199956315 36.13077395127902 L4.134564261831893 25.669152272032328 A26 26 0 0 1 -4.1345642618318905 25.669152272032328 L-4.1345642618318905 25.669152272032328 L-7.533751199956312 36.13077395127902 L-15.14220333031754 33.65863799627944 L-11.74301639219312 23.197016317032748 A26 26 0 0 1 -18.43288189650774 18.33654452151215 L-18.43288189650774 18.33654452151215 L-27.33206883463216 24.802182296729356 L-32.03435085297195 18.330046341729776 L-23.135163914847528 11.86440856651257 A26 26 0 0 1 -25.690465157330255 4.0000000000000036 L-25.690465157330255 4.0000000000000036 L-36.69046515733025 4.000000000000004 L-36.69046515733026 -3.999999999999996 L-25.69046515733026 -3.9999999999999973 A26 26 0 0 1 -23.13516391484753 -11.864408566512562 L-23.13516391484753 -11.864408566512562 L-32.034350852971954 -18.330046341729766 L-27.332068834632167 -24.80218229672935 L-18.432881896507745 -18.336544521512145 A26 26 0 0 1 -11.743016392193127 -23.197016317032748 L-11.743016392193127 -23.197016317032748 L-15.14220333031755 -33.65863799627944 L-7.5337511999563205 -36.13077395127902 L-4.134564261831897 -25.669152272032328 A26 26 0 0 1 4.134564261831888 -25.66915227203233 L4.134564261831888 -25.66915227203233 L7.533751199956308 -36.130773951279025 L15.142203330317539 -33.65863799627944 L11.743016392193118 -23.19701631703275 A26 26 0 0 1 18.43288189650774 -18.33654452151215 L18.43288189650774 -18.33654452151215 L27.33206883463216 -24.802182296729356 L32.03435085297195 -18.330046341729776 L23.135163914847528 -11.864408566512571 A26 26 0 0 1 25.690465157330255 -4.000000000000007 M0 -21A21 21 0 1 0 0 21 A21 21 0 1 0 0 -21"></path></g></g><g></g></g><!-- [ldio] generated by https://loading.io --></svg>